<?xml version="1.0" standalone="no"?>
<!DOCTYPE svg PUBLIC "-//W3C//DTD SVG 20010904//EN"
 "http://www.w3.org/TR/2001/REC-SVG-20010904/DTD/svg10.dtd">
<svg version="1.0" xmlns="http://www.w3.org/2000/svg"
 width="512pt" height="512pt" viewBox="276 279 471 471"
 preserveAspectRatio="xMidYMid meet">

<g transform="translate(0.000000,1024.000000) scale(0.100000,-0.100000)"
fill="#f9f9f9" stroke="none">
<path d="M4900 7430 c-814 -99 -1475 -558 -1876 -1302 -29 -54 -49 -98 -46
-98 4 0 18 12 31 26 35 37 212 163 321 230 91 55 244 127 326 154 25 8 72 44
131 101 266 253 568 410 936 485 170 35 459 44 636 20 480 -66 942 -316 1217
-660 164 -205 235 -390 235 -611 0 -186 -45 -325 -159 -485 -66 -93 -310 -334
-424 -419 l-97 -72 15 -47 c83 -272 104 -375 104 -516 0 -83 -12 -193 -26
-240 -5 -15 5 -12 62 18 100 52 189 123 288 226 124 131 211 289 257 467 24
97 24 139 -2 197 -27 61 -18 86 58 171 157 176 235 398 236 675 1 169 -12 262
-60 420 -74 247 -177 415 -378 616 -336 336 -732 539 -1220 625 -136 24 -440
34 -565 19z"/>
<path d="M4950 6844 c-14 -2 -59 -9 -100 -15 -96 -14 -211 -42 -325 -81 -104
-35 -317 -136 -358 -170 l-28 -23 59 3 c45 3 67 -1 87 -14 56 -36 71 -114 32
-159 -19 -23 -34 -28 -107 -36 -279 -32 -462 -83 -673 -189 -209 -105 -434
-275 -612 -461 l-90 -95 -28 -139 c-40 -207 -47 -264 -47 -432 0 -283 56 -561
167 -821 l18 -42 0 202 c0 149 5 232 19 313 79 476 272 865 533 1076 114 91
183 133 286 174 146 57 259 75 511 83 l220 7 13 65 c52 256 230 534 463 723
l45 36 -30 -1 c-16 0 -41 -2 -55 -4z"/>
<path d="M5342 6718 c212 -208 322 -397 371 -636 l12 -61 205 -5 c113 -3 241
-10 285 -16 90 -13 268 -69 333 -105 50 -28 50 -25 21 71 -38 126 -113 243
-240 375 -266 275 -668 468 -1053 503 l-69 7 135 -133z"/>
<path fill="#ffffff" d="M5062 6383 c-65 -159 -247 -643 -257 -686 -4 -14 -18 -38 -31 -52
l-23 -25 -301 0 c-270 0 -638 -15 -649 -26 -9 -9 52 -63 339 -303 162 -135
322 -271 355 -303 l60 -56 -42 -169 c-24 -92 -71 -280 -107 -418 -35 -137 -66
-271 -70 -298 l-7 -47 48 28 c26 16 113 71 193 122 294 189 519 328 537 334
13 4 52 -15 118 -55 231 -142 276 -170 400 -249 226 -144 295 -182 295 -161 0
25 -41 204 -90 391 -125 477 -135 520 -124 538 12 19 288 259 559 485 99 83
181 153 183 157 5 14 -122 20 -538 26 -342 5 -418 9 -432 21 -9 8 -25 40 -37
71 -140 385 -302 806 -315 819 -2 2 -30 -63 -64 -144z"/>
<path d="M7324 5719 c0 -140 -4 -180 -26 -275 -35 -147 -97 -294 -169 -400
-49 -71 -59 -93 -59 -128 0 -135 -43 -316 -112 -474 -84 -192 -254 -406 -423
-530 -75 -55 -238 -140 -319 -167 -161 -52 -372 -62 -530 -23 -113 28 -289
114 -447 221 l-116 78 -129 -86 c-236 -159 -408 -228 -601 -242 -76 -5 -93 -9
-93 -22 0 -51 85 -306 147 -440 63 -137 213 -362 286 -429 32 -30 153 -50 362
-58 495 -21 968 129 1380 436 104 78 209 170 201 177 -2 2 -16 -1 -32 -8 -107
-41 -363 -62 -472 -38 -46 9 -55 8 -133 -25 -115 -47 -294 -100 -414 -122
-136 -25 -483 -26 -598 -1 -164 35 -237 59 -266 88 -58 57 -46 140 24 173 35
17 38 17 138 -13 169 -51 271 -64 442 -58 227 8 435 57 611 145 l79 38 70 -12
c122 -22 288 -18 401 11 103 26 250 91 332 146 241 164 440 494 542 896 48
190 63 317 63 523 -1 250 -31 435 -115 709 l-23 73 -1 -163z"/>
<path d="M3440 5383 c-134 -180 -245 -499 -280 -798 -13 -115 -13 -383 0 -500
17 -155 51 -349 63 -365 81 -104 214 -254 293 -330 103 -99 211 -192 203 -175
-3 6 -19 39 -36 75 -71 149 -130 356 -158 552 -30 209 -12 614 31 704 24 49
55 68 105 61 79 -10 105 -59 84 -157 -26 -121 -37 -321 -25 -458 26 -317 120
-601 298 -904 55 -94 59 -98 122 -127 79 -37 281 -113 286 -108 2 2 -17 33
-42 71 -147 219 -245 473 -328 851 -78 358 -74 574 19 879 19 61 37 119 40
128 5 12 -15 33 -82 83 -232 175 -412 362 -498 518 -20 37 -39 67 -41 67 -2 0
-27 -30 -54 -67z"/>
</g>
</svg>
